<?xml version="1.0" standalone="no"?>
<!DOCTYPE svg PUBLIC "-//W3C//DTD SVG 20010904//EN"
 "http://www.w3.org/TR/2001/REC-SVG-20010904/DTD/svg10.dtd">
<svg version="1.0" xmlns="http://www.w3.org/2000/svg"
 width="512.000000pt" height="512.000000pt" viewBox="0 0 512.000000 512.000000"
 preserveAspectRatio="xMidYMid meet">
<metadata>
Created by potrace 1.11, written by Peter Selinger 2001-2013
</metadata>
<g transform="translate(0.000000,512.000000) scale(0.100000,-0.100000)"
fill="#000000" stroke="none">
<path d="M885 5111 c-52 -13 -91 -39 -132 -85 -59 -67 -77 -150 -52 -236 l12
-38 -298 -299 c-164 -164 -325 -326 -357 -361 l-59 -62 3 -410 3 -410 153
-152 152 -153 473 -3 472 -3 255 -254 256 -255 536 0 537 0 6 -21 c11 -33 75
-98 119 -121 48 -25 141 -29 198 -10 47 17 114 82 139 135 25 56 25 148 0 204
-25 53 -92 118 -139 135 -64 22 -153 15 -205 -15 -46 -27 -92 -74 -110 -114
l-10 -23 -506 0 -506 0 -240 241 c-132 132 -252 247 -267 255 -22 12 -107 14
-485 14 l-458 0 -102 102 -103 103 0 353 0 353 325 326 325 326 60 -12 c124
-25 224 22 283 133 30 56 30 164 -1 222 -22 44 -74 94 -121 118 -35 19 -116
27 -156 17z m116 -190 c31 -31 36 -59 17 -94 -18 -34 -39 -46 -81 -47 -51 0
-87 35 -87 85 0 80 92 114 151 56z m2134 -2386 c55 -54 16 -145 -60 -145 -45
0 -95 45 -95 85 0 16 12 38 29 56 38 38 91 40 126 4z"/>
<path d="M1995 5111 c-67 -17 -153 -87 -169 -139 -7 -20 -15 -21 -207 -24
l-201 -3 -24 -28 c-23 -26 -24 -36 -24 -150 l0 -122 -159 -159 -158 -158 -57
12 c-131 27 -248 -37 -291 -161 -31 -87 -14 -175 48 -245 70 -79 156 -107 249
-80 133 38 210 172 178 307 l-12 51 181 182 181 182 0 102 0 102 139 0 139 0
33 -51 c59 -93 152 -132 260 -109 l61 13 499 -499 499 -499 0 -121 0 -122 -29
-12 c-65 -27 -126 -112 -137 -193 -8 -58 18 -147 56 -190 72 -83 195 -113 290
-70 51 23 115 88 137 142 45 105 -8 251 -111 306 l-36 20 0 125 c0 69 -5 141
-10 160 -8 27 -126 151 -526 551 l-516 516 12 57 c21 101 -7 186 -82 250 -62
53 -141 74 -213 57z m116 -190 c36 -36 37 -70 3 -110 -53 -63 -154 -28 -154
54 0 80 92 114 151 56z m-1120 -754 c21 -16 39 -51 39 -77 0 -36 -53 -80 -95
-80 -76 0 -115 91 -60 145 27 28 88 34 116 12z m2317 -953 c30 -35 30 -87 -3
-119 -49 -50 -137 -20 -151 52 -6 28 -1 38 30 69 31 31 41 36 69 30 17 -3 42
-17 55 -32z"/>
<path d="M2751 5108 c-88 -25 -163 -107 -183 -199 -25 -121 54 -249 177 -284
52 -16 68 -16 123 -5 l64 13 414 -414 414 -414 0 -424 0 -424 96 -98 96 -98
-12 -51 c-38 -160 76 -313 235 -314 80 0 123 16 172 65 52 51 75 99 81 165 14
169 -135 299 -304 264 l-57 -12 -73 73 -73 73 -3 428 -3 428 -434 434 -434
434 13 64 c11 55 11 71 -5 123 -37 130 -178 210 -304 173z m124 -183 c54 -53
16 -145 -60 -145 -49 0 -85 36 -85 85 0 76 92 114 145 60z m1370 -2220 c55
-54 16 -145 -60 -145 -27 0 -44 8 -66 29 -36 36 -37 70 -3 110 34 41 92 44
129 6z"/>
<path d="M3507 5104 c-72 -22 -141 -93 -162 -167 -27 -94 -8 -175 59 -245 112
-120 308 -99 391 43 l27 45 207 0 206 0 273 -273 272 -272 0 -168 c0 -92 -4
-167 -8 -167 -28 0 -102 -65 -127 -112 -77 -141 -3 -315 153 -359 140 -39 292
61 317 208 14 89 -55 220 -134 253 l-30 12 -3 199 -3 199 -323 323 -322 322
-239 3 -239 3 -28 44 c-32 52 -93 98 -149 114 -51 14 -79 13 -138 -5z m138
-179 c54 -53 16 -145 -60 -145 -49 0 -85 36 -85 85 0 76 92 114 145 60z m1258
-1177 c34 -18 46 -39 47 -81 0 -51 -35 -87 -85 -87 -50 0 -85 36 -85 88 0 71
63 112 123 80z"/>
<path d="M1627 4334 c-56 -18 -123 -79 -151 -139 -13 -26 -20 -62 -20 -100 1
-164 161 -286 315 -241 62 17 126 67 154 120 l20 36 121 0 122 0 146 -143 146
-143 0 -250 0 -250 -45 -22 c-78 -38 -133 -149 -122 -244 17 -141 157 -247
290 -218 112 24 191 108 204 218 11 95 -44 206 -122 244 l-45 22 0 277 c0 255
-1 278 -19 300 -30 38 -354 360 -373 370 -9 5 -82 9 -162 9 -138 0 -145 1
-151 21 -11 33 -74 98 -116 120 -53 26 -133 32 -192 13z m140 -176 c34 -32 32
-99 -3 -127 -60 -47 -144 -10 -144 64 0 75 92 114 147 63z m858 -1113 c55 -54
14 -144 -65 -144 -54 0 -90 38 -90 94 0 68 104 102 155 50z"/>
<path d="M4295 4341 c-69 -17 -134 -71 -171 -141 -27 -50 -25 -161 3 -215 23
-44 62 -83 110 -110 l32 -19 3 -283 3 -283 179 -179 179 -179 -13 -60 c-23
-110 21 -213 115 -267 40 -24 45 -31 45 -63 0 -35 -17 -54 -337 -374 l-337
-337 -4 -70 -4 -70 -45 -26 c-91 -54 -138 -164 -114 -269 16 -71 60 -131 116
-158 l45 -22 0 -105 -1 -106 -51 -30 c-93 -55 -136 -169 -104 -278 41 -143
202 -217 336 -156 187 84 201 341 25 445 l-45 26 0 97 0 97 52 34 c66 44 107
109 115 181 10 102 -28 181 -115 239 -92 60 -102 45 290 437 l342 342 4 71 c4
65 6 72 32 85 66 34 122 113 135 192 18 110 -66 235 -180 268 -52 16 -68 16
-123 5 l-64 -13 -159 159 -159 159 0 242 0 243 39 24 c52 33 105 98 119 145
57 189 -106 367 -293 322z m120 -186 c55 -54 16 -145 -60 -145 -27 0 -44 8
-66 29 -36 36 -37 70 -3 110 34 41 92 44 129 6z m510 -1280 c54 -53 16 -145
-60 -145 -75 0 -114 92 -63 147 30 32 90 32 123 -2z m-684 -1364 c20 -20 29
-39 29 -61 0 -43 -47 -90 -90 -90 -43 0 -90 47 -90 90 0 43 47 90 90 90 22 0
41 -9 61 -29z m0 -680 c38 -39 40 -88 3 -125 -37 -37 -86 -35 -125 3 -45 45
-37 105 19 135 41 23 71 19 103 -13z"/>
<path d="M535 3741 c-107 -26 -188 -130 -188 -241 0 -170 172 -292 333 -235
56 20 111 65 136 112 l20 38 444 0 443 0 22 -40 c26 -46 92 -98 146 -114 121
-36 256 29 307 148 46 108 -11 256 -119 311 -115 60 -279 13 -331 -95 l-22
-45 -446 0 -446 0 -22 45 c-43 90 -169 142 -277 116z m118 -175 c35 -32 42
-67 23 -105 -44 -84 -166 -60 -166 34 0 27 8 44 29 66 37 36 78 38 114 5z
m1368 -5 c74 -74 -10 -190 -102 -141 -27 15 -52 68 -44 97 9 36 53 73 87 73
19 0 40 -10 59 -29z"/>
<path d="M963 2721 c-62 -16 -133 -73 -163 -131 -71 -138 5 -312 155 -356 49
-14 66 -14 122 -4 l65 13 179 -179 179 -179 285 -3 c277 -3 284 -3 290 -24 11
-31 74 -97 115 -118 56 -29 120 -34 183 -16 66 19 108 52 143 112 l26 44 446
0 447 0 24 -46 c25 -47 69 -86 109 -99 l22 -6 0 -619 0 -618 -29 -10 c-36 -13
-94 -72 -117 -120 -57 -119 -2 -271 120 -335 56 -29 156 -29 211 0 47 25 95
74 121 123 27 51 25 162 -3 215 -27 51 -74 99 -113 115 l-30 12 0 617 0 617
45 22 c78 38 133 149 122 244 -19 161 -196 266 -340 204 -49 -21 -111 -78
-127 -116 l-12 -30 -449 0 -448 0 -15 28 c-22 41 -86 99 -131 118 -52 22 -142
21 -186 -1 -55 -29 -104 -71 -124 -109 l-20 -36 -250 0 -250 0 -156 156 -156
156 15 54 c49 174 -128 350 -305 305z m122 -186 c54 -53 16 -145 -60 -145 -76
0 -114 92 -60 145 16 17 35 25 60 25 25 0 44 -8 60 -25z m1280 -510 c53 -53
15 -149 -58 -149 -52 0 -87 35 -87 86 0 52 35 88 85 88 25 0 44 -8 60 -25z
m1366 -4 c48 -49 34 -114 -31 -141 -86 -36 -160 77 -94 144 37 37 86 35 125
-3z m3 -1706 c41 -38 30 -111 -21 -134 -66 -30 -133 7 -133 74 0 77 95 115
154 60z"/>
</g>
</svg>
